<svg width="49" height="49" viewBox="0 0 49 49" fill="none" xmlns="http://www.w3.org/2000/svg">
<path d="M49 24.5C49 10.969 38.031 0 24.5 0C10.969 0 0 10.969 0 24.5C0 38.031 10.969 49 24.5 49C38.031 49 49 38.031 49 24.5Z" fill="url(#paint0_linear_1_413)"/>
<path d="M30.7657 11H19.0297C17.1137 11.0024 15.2769 11.7646 13.9221 13.1194C12.5673 14.4742 11.8051 16.311 11.8027 18.227V29.963C11.8051 31.879 12.5673 33.7158 13.9221 35.0706C15.2769 36.4254 17.1137 37.1876 19.0297 37.19H30.7657C32.6817 37.1876 34.5186 36.4254 35.8734 35.0706C37.2282 33.7158 37.9904 31.879 37.9927 29.963V18.227C37.9904 16.311 37.2282 14.4742 35.8734 13.1194C34.5186 11.7646 32.6817 11.0024 30.7657 11ZM35.6657 29.963C35.6631 31.2617 35.146 32.5065 34.2276 33.4249C33.3093 34.3433 32.0645 34.8604 30.7657 34.863H19.0297C17.731 34.8604 16.4862 34.3433 15.5678 33.4249C14.6495 32.5065 14.1324 31.2617 14.1297 29.963V18.227C14.1324 16.9283 14.6495 15.6835 15.5678 14.7651C16.4862 13.8467 17.731 13.3296 19.0297 13.327H30.7657C32.0645 13.3296 33.3093 13.8467 34.2276 14.7651C35.146 15.6835 35.6631 16.9283 35.6657 18.227V29.963Z" fill="white"/>
<path d="M24.8985 17.3472C23.3375 17.3476 21.8249 17.8892 20.6184 18.8798C19.4119 19.8703 18.5862 21.2485 18.2818 22.7795C17.9775 24.3106 18.2134 25.8998 18.9493 27.2765C19.6852 28.6531 20.8757 29.732 22.3179 30.3294C23.76 30.9269 25.3647 31.0058 26.8586 30.5528C28.3524 30.0998 29.643 29.1429 30.5105 27.8451C31.3779 26.5474 31.7686 24.989 31.616 23.4354C31.4634 21.8819 30.7769 20.4293 29.6735 19.3252C29.0466 18.6979 28.3022 18.2003 27.4828 17.8609C26.6635 17.5215 25.7853 17.3469 24.8985 17.3472ZM24.8985 28.5202C24.023 28.5202 23.1673 28.2605 22.4394 27.774C21.7116 27.2875 21.1445 26.5961 20.8097 25.7872C20.475 24.9782 20.3877 24.0882 20.5589 23.2297C20.7302 22.3712 21.1522 21.5827 21.7716 20.9641C22.3911 20.3455 23.1801 19.9245 24.0389 19.7545C24.8976 19.5844 25.7875 19.6729 26.596 20.0087C27.4045 20.3446 28.0951 20.9127 28.5806 21.6411C29.0661 22.3696 29.3247 23.2257 29.3235 24.1012C29.3219 25.2737 28.855 26.3977 28.0253 27.2262C27.1956 28.0548 26.071 28.5202 24.8985 28.5202Z" fill="white"/>
<defs>
<linearGradient id="paint0_linear_1_413" x1="51.94" y1="1.23192e-06" x2="-6.566" y2="45.57" gradientUnits="userSpaceOnUse">
<stop offset="0.01" stop-color="#FC00FF"/>
<stop offset="1" stop-color="#00DBDE"/>
</linearGradient>
</defs>
</svg>
