<svg width="31" height="31" viewBox="0 0 31 31" fill="none" xmlns="http://www.w3.org/2000/svg">
<path opacity="0.3" d="M17.6433 30.861C17.5503 30.824 17.5433 29.447 17.5433 15.861C17.5433 7.62802 17.5633 0.876021 17.5873 0.861021C17.6113 0.846021 18.8503 0.817021 20.3443 0.817021C21.4365 0.774753 22.5303 0.806157 23.6183 0.911021C25.1901 1.17324 26.6424 1.91475 27.7766 3.03407C28.9108 4.15339 29.6714 5.59584 29.9543 7.16402C30.0423 7.61902 30.0543 8.68402 30.0543 15.827C30.0543 24.777 30.0653 24.465 29.6743 25.636C29.5418 26.0088 29.3858 26.3729 29.2073 26.726C28.6214 27.8447 27.7715 28.8036 26.7315 29.5198C25.6914 30.2359 24.4924 30.6877 23.2383 30.836C22.8823 30.873 21.0203 30.897 19.5383 30.897C18.5373 30.897 17.7113 30.886 17.6433 30.861ZM20.5933 16.443C20.4394 17.0172 20.4311 17.6208 20.5693 18.199C20.7475 18.8143 21.1168 19.3568 21.6238 19.7483C22.1308 20.1397 22.7491 20.3597 23.3894 20.3764C24.0297 20.3931 24.6587 20.2056 25.1855 19.8412C25.7122 19.4767 26.1093 18.9541 26.3193 18.349C26.5269 17.7053 26.529 17.013 26.3253 16.368C26.1619 15.8978 25.8858 15.4749 25.5211 15.1361C25.1564 14.7974 24.7142 14.5532 24.2333 14.425C23.4834 14.2301 22.6872 14.3309 22.0095 14.7065C21.3318 15.0821 20.8244 15.7038 20.5923 16.443H20.5933ZM10.5173 30.88C9.08272 30.9482 7.64503 30.9044 6.21728 30.749C4.72428 30.4381 3.35504 29.6967 2.27863 28.6164C1.20223 27.5361 0.465799 26.1641 0.160282 24.67C0.0362818 24.091 0.0292818 23.917 0.0112818 16.417C-0.0197182 8.25302 0.000281811 7.63702 0.273282 6.58402C0.651863 5.14989 1.43313 3.85412 2.52472 2.84988C3.61632 1.84565 4.97261 1.17493 6.43328 0.917021C7.84564 0.810896 9.26261 0.779519 10.6783 0.823021C14.3253 0.817021 14.4313 0.823021 14.4933 0.935021C14.5373 1.02202 14.5563 5.78002 14.5563 15.882C14.5563 29.509 14.5503 30.711 14.4563 30.804C14.3923 30.868 14.2013 30.891 12.9563 30.891C12.3913 30.892 11.6053 30.887 10.5173 30.88ZM9.65828 3.25202C6.99328 3.25802 6.61428 3.29602 5.79328 3.62602C4.981 3.95514 4.26206 4.47885 3.6997 5.15106C3.13734 5.82327 2.74881 6.62339 2.56828 7.48102C2.43728 8.09802 2.43728 23.593 2.57528 24.222C2.77466 25.2011 3.2477 26.1035 3.93945 26.8245C4.63121 27.5454 5.5133 28.0553 6.48328 28.295C7.49006 28.4657 8.51334 28.518 9.53228 28.451L12.0663 28.482V3.24602L9.65828 3.25202ZM7.39228 12.638C7.02103 12.6593 6.65153 12.5728 6.32828 12.389C5.74089 12.1074 5.2684 11.6321 4.99028 11.043C4.81286 10.7309 4.72465 10.3759 4.73528 10.017C4.69691 9.58505 4.76094 9.15012 4.92218 8.74754C5.08342 8.34496 5.33733 7.98607 5.66328 7.70002C6.04533 7.38929 6.49182 7.16759 6.97028 7.05102C7.34601 6.98021 7.73213 6.98545 8.1058 7.06644C8.47946 7.14743 8.8331 7.30252 9.1458 7.52254C9.45849 7.74256 9.72389 8.02305 9.92631 8.34742C10.1287 8.67179 10.2641 9.03345 10.3243 9.41102C10.4275 10.0758 10.2889 10.7556 9.93364 11.327C9.57843 11.8983 9.03013 12.3234 8.38828 12.525C8.15865 12.6097 7.91495 12.6498 7.67028 12.643C7.58928 12.644 7.50028 12.642 7.39228 12.638Z" fill="white"/>
</svg>
