<svg width="53" height="39" viewBox="0 0 53 39" fill="none" xmlns="http://www.w3.org/2000/svg">
<path fill-rule="evenodd" clip-rule="evenodd" d="M23.213 1.97479V13.1178C23.2204 13.441 23.165 13.7627 23.05 14.0648V14.0798C22.8538 14.6072 22.5005 15.0616 22.0379 15.3818C21.5753 15.7021 21.0256 15.8728 20.463 15.8708H9.92096C9.55951 15.8713 9.20151 15.8005 8.8675 15.6624C8.53348 15.5242 8.23005 15.3215 7.97455 15.0658C7.71906 14.8101 7.51653 14.5065 7.37864 14.1724C7.24074 13.8383 7.17017 13.4802 7.17096 13.1188V10.3958C7.17176 9.66643 7.46165 8.96708 7.97712 8.45105C8.49258 7.93502 9.19159 7.64441 9.92096 7.64282H15.721V1.97479C15.7198 1.80492 15.7521 1.63647 15.8162 1.47913C15.8802 1.32178 15.9747 1.17863 16.0941 1.05786C16.2136 0.937092 16.3557 0.841126 16.5124 0.775391C16.669 0.709656 16.8371 0.675458 17.007 0.674805H21.93C22.0996 0.675852 22.2674 0.710334 22.4236 0.776245C22.5799 0.842156 22.7217 0.93823 22.8409 1.05896C22.96 1.17969 23.0542 1.32271 23.118 1.47986C23.1819 1.63701 23.2141 1.80517 23.213 1.97479ZM52.1 26.7648C52.0997 27.1236 52.0276 27.4786 51.888 27.809C51.7484 28.1395 51.544 28.4386 51.287 28.6888L41.662 38.2038C41.2807 38.5889 40.7933 38.8518 40.262 38.9588H13.9V39.0028H12.348C11.9905 39.0036 11.6365 38.9333 11.3066 38.796C10.9766 38.6586 10.6772 38.457 10.426 38.2028L7.21796 35.0358L0.817967 28.6868C0.558237 28.4387 0.352111 28.1399 0.212285 27.809C0.0724584 27.4781 0.00190772 27.122 0.00497894 26.7628V18.2538C0.00705497 17.7023 0.199434 17.1685 0.549626 16.7426C0.899818 16.3166 1.38635 16.0246 1.92698 15.9158C2.07768 15.8851 2.23117 15.8704 2.38495 15.8718H7.29996V28.1548C7.2997 29.0217 7.6437 29.8532 8.25632 30.4666C8.86895 31.08 9.70005 31.425 10.567 31.4258H41.512C42.3791 31.4253 43.2104 31.0804 43.8233 30.467C44.4361 29.8536 44.7802 29.0219 44.78 28.1548V15.8748H49.718C50.0307 15.8748 50.3403 15.9364 50.6292 16.0562C50.9181 16.1759 51.1806 16.3514 51.4016 16.5726C51.6226 16.7938 51.7979 17.0564 51.9174 17.3454C52.0368 17.6344 52.0982 17.9441 52.098 18.2568L52.1 26.7648ZM38.7 20.0648C38.6994 20.5628 38.5014 21.0403 38.1494 21.3925C37.7973 21.7448 37.32 21.943 36.822 21.9438C36.441 21.9486 36.0679 21.836 35.7531 21.6213C35.4384 21.4066 35.1975 21.1002 35.063 20.7438C34.9735 20.528 34.9283 20.2964 34.93 20.0628C34.9308 19.6058 35.0976 19.1646 35.3995 18.8215C35.7014 18.4784 36.1178 18.2568 36.571 18.1978C36.6542 18.1877 36.7381 18.1827 36.822 18.1828C37.0691 18.1823 37.3139 18.2304 37.5423 18.3245C37.7708 18.4186 37.9785 18.5569 38.1536 18.7313C38.3286 18.9057 38.4676 19.1129 38.5625 19.341C38.6575 19.5691 38.7066 19.8137 38.707 20.0608L38.7 20.0648ZM35.388 22.8468C35.3863 23.2813 35.2346 23.7019 34.9586 24.0374C34.6825 24.3729 34.299 24.6027 33.873 24.688C33.4469 24.7733 33.0045 24.7088 32.6205 24.5054C32.2366 24.302 31.9347 23.9722 31.766 23.5718C31.6646 23.3437 31.6141 23.0963 31.618 22.8468C31.6165 22.4053 31.7694 21.9773 32.0503 21.6367C32.3311 21.2961 32.7223 21.0644 33.156 20.9818C33.2683 20.9625 33.382 20.9524 33.496 20.9518C33.7455 20.9497 33.993 20.9971 34.2241 21.0912C34.4552 21.1853 34.6654 21.3243 34.8424 21.5002C35.0195 21.676 35.1599 21.8852 35.2556 22.1157C35.3513 22.3461 35.4004 22.5933 35.4 22.8428L35.388 22.8468ZM42.088 22.8468C42.0874 23.3448 41.8894 23.8223 41.5374 24.1745C41.1853 24.5267 40.708 24.725 40.21 24.7258C39.9174 24.7326 39.6278 24.6666 39.367 24.5338C39.0494 24.3773 38.7825 24.1344 38.5968 23.833C38.4112 23.5316 38.3143 23.1839 38.3175 22.8299C38.3206 22.4759 38.4236 22.1299 38.6145 21.8318C38.8055 21.5338 39.0767 21.2956 39.397 21.1448C39.6495 21.0189 39.9278 20.9532 40.21 20.9528C40.4578 20.9529 40.7032 21.0019 40.932 21.097C41.1609 21.1922 41.3687 21.3315 41.5436 21.5071C41.7186 21.6826 41.8571 21.891 41.9514 22.1202C42.0457 22.3494 42.0938 22.595 42.093 22.8428L42.088 22.8468ZM44.779 10.4158V13.1388C44.7783 13.4992 44.7066 13.8559 44.5681 14.1886C44.4295 14.5213 44.2267 14.8234 43.9713 15.0776C43.7159 15.3319 43.4129 15.5333 43.0797 15.6705C42.7464 15.8076 42.3894 15.8778 42.029 15.8768H31.492C31.1302 15.8801 30.7714 15.8118 30.4362 15.6757C30.101 15.5396 29.7961 15.3384 29.539 15.0839C29.282 14.8293 29.0779 14.5264 28.9385 14.1926C28.7991 13.8587 28.7272 13.5006 28.727 13.1388V10.4158C28.7278 10.0535 28.7999 9.69485 28.9393 9.36041C29.0787 9.02598 29.2826 8.72231 29.5393 8.46667C29.7961 8.21103 30.1006 8.00847 30.4357 7.87054C30.7707 7.73262 31.1297 7.66199 31.492 7.66278H42.034C42.3952 7.66225 42.7529 7.73302 43.0867 7.87097C43.4206 8.00892 43.7239 8.21138 43.9793 8.46674C44.2348 8.7221 44.4373 9.02536 44.5754 9.35913C44.7135 9.6929 44.7844 10.0506 44.784 10.4118L44.779 10.4158ZM38.702 25.6878C38.7038 25.9152 38.6638 26.1409 38.584 26.3538C38.4483 26.7106 38.2075 27.0178 37.8934 27.2346C37.5793 27.4514 37.2066 27.5676 36.825 27.5678C36.6136 27.5731 36.403 27.5392 36.204 27.4678C35.8761 27.355 35.5858 27.1538 35.3647 26.8867C35.1437 26.6195 35.0007 26.2966 34.9512 25.9534C34.9018 25.6102 34.948 25.26 35.0846 24.9413C35.2212 24.6227 35.443 24.3478 35.7257 24.147C36.0084 23.9462 36.3409 23.8272 36.6868 23.8031C37.0327 23.779 37.3786 23.8507 37.6864 24.0104C37.9942 24.17 38.252 24.4114 38.4315 24.7081C38.611 25.0047 38.7053 25.3451 38.704 25.6918L38.702 25.6878ZM22.302 21.7658V25.2438H18.842V28.7068H15.367V25.2438H11.907V21.7658H15.367V18.3028H18.842V21.7658H22.302Z" fill="url(#paint0_linear_1_425)"/>
<path d="M52.1 18.2557V26.7647C52.0997 27.1234 52.0276 27.4784 51.888 27.8089C51.7484 28.1393 51.544 28.4385 51.287 28.6887L41.662 38.2037C41.2807 38.5889 40.7933 38.8518 40.262 38.9587H13.9V39.0027H12.348C11.9905 39.0035 11.6365 38.9332 11.3066 38.7959C10.9766 38.6585 10.6772 38.4569 10.426 38.2027L7.21796 35.0357L0.817967 28.6867C0.558237 28.4385 0.352111 28.1398 0.212285 27.8089C0.0724584 27.478 0.00190772 27.122 0.00497894 26.7627V18.2537C0.00705497 17.7023 0.199434 17.1685 0.549626 16.7425C0.899818 16.3165 1.38635 16.0244 1.92698 15.9157C2.07767 15.8849 2.23116 15.8702 2.38495 15.8717H7.29996V28.1547C7.29996 29.0214 7.64406 29.8527 8.25666 30.4659C8.86925 31.079 9.70022 31.4239 10.567 31.4247H41.512C42.3789 31.4242 43.2101 31.0794 43.8229 30.4662C44.4357 29.853 44.78 29.0216 44.78 28.1547V15.8727H49.718C50.0309 15.8725 50.3409 15.9339 50.6301 16.0536C50.9193 16.1732 51.182 16.3488 51.4032 16.5702C51.6245 16.7915 51.7999 17.0543 51.9195 17.3435C52.039 17.6328 52.1004 17.9428 52.1 18.2557Z" fill="url(#paint1_linear_1_425)"/>
<path d="M23.213 13.1206V13.4316C23.2153 13.6543 23.159 13.8736 23.0499 14.0676C23.165 13.7655 23.2204 13.4438 23.213 13.1206Z" fill="url(#paint2_linear_1_425)"/>
<defs>
<linearGradient id="paint0_linear_1_425" x1="55.2257" y1="0.674806" x2="8.10245" y2="50.5626" gradientUnits="userSpaceOnUse">
<stop offset="0.01" stop-color="#FC00FF"/>
<stop offset="1" stop-color="#00DBDE"/>
</linearGradient>
<linearGradient id="paint1_linear_1_425" x1="55.2257" y1="15.8716" x2="30.7143" y2="58.8693" gradientUnits="userSpaceOnUse">
<stop offset="0.01" stop-color="#FC00FF"/>
<stop offset="1" stop-color="#00DBDE"/>
</linearGradient>
<linearGradient id="paint2_linear_1_425" x1="23.2234" y1="13.1206" x2="22.915" y2="13.1621" gradientUnits="userSpaceOnUse">
<stop offset="0.01" stop-color="#FC00FF"/>
<stop offset="1" stop-color="#00DBDE"/>
</linearGradient>
</defs>
</svg>
