<svg width="73" height="73" viewBox="0 0 73 73" fill="none" xmlns="http://www.w3.org/2000/svg">
<path d="M70.3899 21.5552L51.1039 2.27021C50.1462 1.30968 48.9531 0.617296 47.6439 0.262207L40.8279 34.3372C40.745 34.7493 40.5418 35.1276 40.2441 35.4242C39.9463 35.7209 39.5673 35.9228 39.1549 36.0042L5.07994 42.8192C5.43572 44.1308 6.1291 45.3262 7.09094 46.2862L8.78294 47.9782L0.695941 56.0622C0.498235 56.2601 0.341446 56.495 0.234524 56.7535C0.127602 57.012 0.0726421 57.289 0.0727814 57.5688C0.0729207 57.8485 0.128157 58.1255 0.235336 58.3839C0.342515 58.6423 0.499538 58.877 0.697441 59.0747C0.895343 59.2724 1.13025 59.4292 1.38874 59.5361C1.64724 59.643 1.92426 59.698 2.204 59.6979C2.48374 59.6977 2.76071 59.6425 3.0191 59.5353C3.27749 59.4281 3.51224 59.2711 3.70994 59.0732L11.7969 50.9862L15.2309 54.4232L0.701941 68.9532C0.487849 69.1467 0.315377 69.3818 0.195022 69.6441C0.0746665 69.9064 0.0089465 70.1904 0.00186179 70.4789C-0.00522291 70.7674 0.0464759 71.0544 0.153811 71.3222C0.261147 71.5901 0.421874 71.8334 0.626209 72.0372C0.830544 72.2409 1.07421 72.401 1.34238 72.5076C1.61055 72.6143 1.89762 72.6652 2.1861 72.6573C2.47458 72.6495 2.75845 72.583 3.02042 72.462C3.2824 72.3409 3.51699 72.1678 3.70994 71.9532L18.2439 57.4252L21.6739 60.8622L13.5889 68.9532C13.3748 69.1467 13.2024 69.3818 13.082 69.6441C12.9617 69.9064 12.8959 70.1904 12.8889 70.4789C12.8818 70.7674 12.9335 71.0544 13.0408 71.3222C13.1481 71.5901 13.3089 71.8334 13.5132 72.0372C13.7175 72.2409 13.9612 72.401 14.2294 72.5076C14.4976 72.6143 14.7846 72.6652 15.0731 72.6573C15.3616 72.6495 15.6454 72.583 15.9074 72.462C16.1694 72.3409 16.404 72.1678 16.5969 71.9532L24.6829 63.8622L26.3749 65.5622C27.8434 67.0224 29.8301 67.8421 31.9009 67.8421C33.9718 67.8421 35.9585 67.0224 37.4269 65.5622L70.3899 32.6062C71.8518 31.1387 72.6727 29.1516 72.6727 27.0802C72.6727 25.0088 71.8518 23.0227 70.3899 21.5552Z" fill="white"/>
</svg>
