<svg width="33" height="46" viewBox="0 0 33 46" fill="none" xmlns="http://www.w3.org/2000/svg">
<path opacity="0.5" d="M4.83206 41.087C3.29811 39.5772 2.08069 37.7767 1.251 35.7907C0.42132 33.8048 -0.00399193 31.6733 2.82355e-05 29.521V21.343H33V29.521C33.004 31.6733 32.5787 33.8048 31.7491 35.7907C30.9194 37.7767 29.7019 39.5772 28.168 41.087C25.06 44.1561 20.868 45.877 16.5 45.877C12.1321 45.877 7.94006 44.1561 4.83206 41.087ZM33 17.252H18.5655V14.676C19.0282 14.437 19.4345 14.1028 19.7588 13.6954C20.0832 13.288 20.3181 12.8165 20.4473 12.312C20.5602 11.9242 20.6202 11.5229 20.626 11.119V7.02899C20.6347 6.65246 20.5824 6.277 20.4717 5.91699C20.1314 4.91894 19.4592 4.06812 18.5664 3.50699V0C22.525 0.490677 26.1723 2.39574 28.8369 5.36401C31.5194 8.34794 33.0033 12.2186 33.003 16.231V17.252H33ZM2.82355e-05 17.252V16.231C0.0168259 12.2313 1.49302 8.3752 4.1514 5.38669C6.80977 2.39818 10.468 0.482762 14.4385 0V3.48999C13.8144 3.84659 13.2945 4.36139 12.9326 4.98251C12.5708 5.60364 12.3793 6.30919 12.377 7.02802V11.118C12.3798 11.8371 12.5719 12.5429 12.9336 13.1644C13.2954 13.7859 13.8146 14.3014 14.4385 14.659V17.251L2.82355e-05 17.252ZM14.4385 11.119V7.02899C14.4385 6.48185 14.6551 5.95714 15.042 5.57025C15.4289 5.18336 15.9539 4.966 16.501 4.966C17.0481 4.966 17.5731 5.18336 17.96 5.57025C18.3469 5.95714 18.5645 6.48185 18.5645 7.02899V11.119C18.5645 11.6661 18.3469 12.1909 17.96 12.5778C17.5731 12.9646 17.0481 13.182 16.501 13.182C15.9539 13.182 15.4289 12.9646 15.042 12.5778C14.6551 12.1909 14.4385 11.6661 14.4385 11.119Z" fill="white"/>
</svg>
