<svg width="37" height="47" viewBox="0 0 37 47" fill="none" xmlns="http://www.w3.org/2000/svg">
<path opacity="0.5" d="M11.743 43.6761C11.743 44.2251 11.755 44.6831 11.737 45.1411C11.7398 45.495 11.6382 45.8419 11.4448 46.1384C11.2515 46.4349 10.975 46.6679 10.65 46.8081C10.3351 46.9748 9.97502 47.0361 9.62264 46.9832C9.27026 46.9303 8.94411 46.7659 8.69202 46.5141C6.09902 44.0981 3.48102 41.7041 0.985015 39.1891C0.405866 38.5267 0.0783846 37.6817 0.0600122 36.8021C-0.0113211 30.4147 -0.0156549 24.0277 0.0470117 17.6411C0.106951 14.5403 1.01253 11.5148 2.66602 8.89106C3.52202 7.48506 4.71401 7.35806 5.90801 8.52806C6.56301 9.17006 7.19702 9.82806 7.85702 10.4681C8.02184 10.6655 8.22621 10.8263 8.45696 10.9399C8.68771 11.0536 8.93973 11.1176 9.19675 11.1279C9.45376 11.1382 9.71008 11.0946 9.94919 10.9997C10.1883 10.9049 10.4049 10.761 10.585 10.5773C10.765 10.3937 10.9046 10.1743 10.9948 9.93337C11.0849 9.69244 11.1235 9.43531 11.1081 9.17854C11.0928 8.92177 11.0238 8.67108 10.9056 8.44261C10.7874 8.21413 10.6227 8.01296 10.422 7.85206C9.74201 7.15206 9.02702 6.48006 8.35502 5.77006C8.12072 5.57809 7.93926 5.32954 7.82778 5.0479C7.7163 4.76626 7.6785 4.46084 7.71794 4.16052C7.75738 3.8602 7.87276 3.5749 8.05318 3.3316C8.2336 3.08829 8.47309 2.89502 8.74901 2.77006C11.6215 0.959253 14.9471 -0.00302228 18.3427 -0.00585311C21.7383 -0.00868394 25.0656 0.948046 27.941 2.75406C28.2239 2.88136 28.469 3.0796 28.6527 3.32955C28.8364 3.5795 28.9524 3.87267 28.9894 4.18064C29.0265 4.48861 28.9833 4.80092 28.8641 5.08728C28.7448 5.37365 28.5536 5.62435 28.309 5.81506C27.633 6.52106 26.918 7.19006 26.242 7.89606C26.0484 8.0606 25.8911 8.26349 25.78 8.49193C25.6688 8.72036 25.6062 8.96938 25.5962 9.22323C25.5862 9.47707 25.6289 9.73024 25.7217 9.96674C25.8145 10.2032 25.9553 10.4179 26.1353 10.5972C26.3153 10.7765 26.5305 10.9165 26.7674 11.0084C27.0042 11.1003 27.2576 11.142 27.5114 11.131C27.7652 11.12 28.0139 11.0565 28.2419 10.9444C28.4699 10.8324 28.6722 10.6743 28.836 10.4801C29.542 9.80406 30.212 9.09006 30.917 8.41306C31.1092 8.16979 31.3608 7.98008 31.6475 7.86221C31.9342 7.74434 32.2465 7.70226 32.5542 7.74004C32.8619 7.77781 33.1547 7.89416 33.4044 8.07789C33.6542 8.26161 33.8524 8.50653 33.98 8.78906C35.7078 11.5124 36.6408 14.6641 36.674 17.8891C36.724 24.1541 36.689 30.4191 36.694 36.6841C36.7078 37.2048 36.6104 37.7224 36.4083 38.2025C36.2062 38.6825 35.904 39.114 35.522 39.4681C33.078 41.7754 30.6297 44.0787 28.177 46.3781C27.922 46.6677 27.5799 46.8667 27.202 46.9449C26.8241 47.0232 26.4311 46.9766 26.082 46.8121C25.7275 46.6618 25.4291 46.4041 25.2289 46.0752C25.0287 45.7464 24.9367 45.363 24.966 44.9791C24.966 39.3251 24.966 33.6714 24.966 28.0181C24.939 27.6033 25.0458 27.1908 25.2709 26.8414C25.4959 26.4919 25.8272 26.224 26.216 26.0771C26.886 25.7851 27.566 25.5091 28.216 25.1721C29.0897 24.7536 29.8298 24.1003 30.3534 23.2853C30.8771 22.4703 31.1636 21.5256 31.181 20.5571C31.2136 20.274 31.1838 19.9872 31.0938 19.7168C31.0039 19.4464 30.8558 19.199 30.6601 18.9919C30.4644 18.7847 30.2258 18.6229 29.961 18.5178C29.6961 18.4126 29.4115 18.3666 29.127 18.3831C27.385 18.3604 25.643 18.3604 23.901 18.3831C23.6397 18.3732 23.3791 18.4155 23.1344 18.5074C22.8896 18.5994 22.6657 18.7392 22.4756 18.9187C22.2855 19.0982 22.133 19.3138 22.0272 19.5528C21.9213 19.7919 21.8641 20.0497 21.859 20.3111C21.3577 26.2444 20.865 32.1804 20.381 38.1191C20.267 39.5281 19.541 40.3731 18.366 40.3791C17.191 40.3851 16.447 39.5361 16.333 38.1391C15.8503 32.2057 15.358 26.2697 14.856 20.3311C14.8517 20.0619 14.7928 19.7965 14.6828 19.5509C14.5728 19.3052 14.4141 19.0845 14.2162 18.902C14.0183 18.7196 13.7854 18.5792 13.5317 18.4895C13.2779 18.3998 13.0086 18.3626 12.74 18.3801C11.0287 18.3627 9.31735 18.3627 7.60602 18.3801C7.32175 18.361 7.03676 18.4044 6.77099 18.507C6.50522 18.6097 6.2651 18.7692 6.06744 18.9744C5.86978 19.1795 5.71935 19.4255 5.62669 19.6949C5.53403 19.9643 5.50138 20.2507 5.53101 20.5341C5.54545 21.5027 5.82875 22.4483 6.3493 23.2653C6.86985 24.0824 7.60718 24.7387 8.47902 25.1611C9.04623 25.457 9.6306 25.7188 10.229 25.9451C10.7123 26.0983 11.1279 26.4133 11.4061 26.8372C11.6842 27.261 11.8078 27.7678 11.756 28.2721C11.727 33.3791 11.743 38.4821 11.743 43.6761Z" fill="white"/>
</svg>
