<svg width="44" height="44" viewBox="0 0 44 44" fill="none" xmlns="http://www.w3.org/2000/svg">
<g opacity="0.5">
<path d="M19.6201 43.5199C16.1667 43.1646 12.8486 41.9878 9.94305 40.0879C7.49605 38.4879 6.94305 37.8349 6.94305 36.5259C6.94305 33.8949 9.83605 29.2879 14.7851 24.0349C17.5961 21.0519 21.511 17.5549 21.934 17.6499C22.757 17.8339 29.3341 24.2499 31.8011 27.2749C35.7011 32.0529 37.487 35.9659 36.578 37.7099C35.886 39.0359 31.5951 41.6269 28.4421 42.6229C25.5832 43.4703 22.5911 43.7755 19.6201 43.5229V43.5199ZM3.63905 33.7899C1.57952 30.6004 0.35625 26.9436 0.0820509 23.1569C-0.0735975 21.3763 0.0519383 19.5824 0.454051 17.8409C1.17755 13.8273 3.01397 10.0976 5.75405 7.07688C6.84605 5.94088 6.94405 5.91288 8.27705 6.35688C9.89605 6.90188 11.6241 8.09588 14.3051 10.5199L15.8691 11.9389L15.0151 12.9889C11.0501 17.8569 6.86405 24.7639 5.28705 29.0349C4.42905 31.3569 4.08405 33.6879 4.45305 34.6569C4.70205 35.3119 4.47305 35.0679 3.63905 33.7879V33.7899ZM39.3301 34.3209C39.457 32.7584 39.2354 31.1872 38.681 29.7209C37.391 25.7869 33.0811 18.4699 29.1231 13.4939L27.8771 11.9299L29.229 10.6919C30.5494 9.42076 31.9894 8.28013 33.529 7.28588C34.4886 6.66398 35.5666 6.24756 36.695 6.06288C37.0891 6.06288 38.4761 7.50288 39.5951 9.07388C41.3758 11.6138 42.6201 14.49 43.2521 17.5269C43.6757 20.2456 43.6982 23.0117 43.319 25.7369C42.9559 27.5093 42.4079 29.2388 41.6841 30.8969C41.0433 32.2299 40.2966 33.5094 39.451 34.7229C39.1781 35.0709 39.1771 35.0699 39.3311 34.3229L39.3301 34.3209ZM19.9801 5.32088C18.0099 4.34172 15.928 3.60598 13.7801 3.12988C13.0957 3.0283 12.4035 2.98947 11.7121 3.01388C10.4281 3.07888 10.4851 3.01388 12.5451 2.03888C14.1613 1.26194 15.8696 0.693395 17.6291 0.346883C20.4194 -0.111907 23.2656 -0.115622 26.0571 0.335883C28.3617 0.81875 30.5808 1.64496 32.64 2.78688L33.097 3.06788L32.048 3.01488C29.9631 2.90988 26.925 3.75188 23.663 5.33888C23.0473 5.65995 22.4128 5.94379 21.7631 6.18888C21.701 6.17788 20.8981 5.78888 19.9801 5.32088Z" fill="white"/>
</g>
</svg>
