<svg width="39" height="31" viewBox="0 0 39 31" fill="none" xmlns="http://www.w3.org/2000/svg">
<path opacity="0.3" fill-rule="evenodd" clip-rule="evenodd" d="M38.6273 23.8399C37.8795 24.57 36.9836 25.1309 36.0003 25.4849L22.1253 30.4689V26.7939L32.3363 23.1559C33.4953 22.7409 33.6733 22.1559 32.7313 21.8459C31.471 21.5544 30.1541 21.6237 28.9313 22.0459L22.1313 24.4459V20.6229L22.5233 20.4899C24.0614 19.9937 25.6469 19.6585 27.2543 19.4899C30.2314 19.1822 33.2397 19.5405 36.0613 20.5389C39.0563 21.4849 39.3933 22.8799 38.6333 23.8389L38.6273 23.8399ZM23.4463 17.5809V8.18089C23.4463 7.08089 23.2463 6.06089 22.2073 5.77289C21.4143 5.51889 20.9223 6.25489 20.9223 7.35789V30.8969L14.5743 28.8819V0.816895C17.5343 1.44288 20.4544 2.24429 23.3193 3.21689C28.6953 5.06289 30.5193 7.35989 30.5193 12.5359C30.5193 17.5809 27.4053 19.4929 23.4483 17.5829L23.4463 17.5809ZM2.92531 26.4089C-0.148695 25.5429 -0.660695 23.7389 0.740305 22.6999C1.82951 21.9906 3.00595 21.4252 4.2403 21.0179L13.3403 17.7819V21.4719L6.79031 23.8169C5.63331 24.2319 5.45531 24.8169 6.39531 25.1279C7.65571 25.4184 8.97236 25.3491 10.1953 24.9279L13.3373 23.7879V27.0879C13.1373 27.1229 12.9163 27.1589 12.7103 27.1929C9.43182 27.7231 6.07375 27.4527 2.92231 26.4049L2.92531 26.4089ZM36.6053 27.8709C36.8994 27.8705 37.1871 27.9573 37.4319 28.1205C37.6767 28.2836 37.8676 28.5156 37.9804 28.7872C38.0933 29.0588 38.1231 29.3578 38.066 29.6464C38.009 29.935 37.8676 30.2001 37.6598 30.4083C37.4521 30.6165 37.1872 30.7584 36.8988 30.8161C36.6103 30.8737 36.3113 30.8445 36.0394 30.7322C35.7676 30.6198 35.5351 30.4294 35.3715 30.185C35.2079 29.9405 35.1205 29.653 35.1203 29.3589C35.1206 28.9649 35.277 28.587 35.5554 28.3081C35.8337 28.0292 36.2113 27.872 36.6053 27.8709ZM35.3693 29.3589C35.3698 29.6865 35.5002 30.0006 35.7319 30.2323C35.9636 30.464 36.2777 30.5944 36.6053 30.5949C36.9331 30.5949 37.2475 30.4647 37.4793 30.2329C37.7111 30.0011 37.8413 29.6867 37.8413 29.3589C37.8413 29.0311 37.7111 28.7167 37.4793 28.4849C37.2475 28.2531 36.9331 28.1229 36.6053 28.1229C36.2775 28.1229 35.9631 28.2531 35.7313 28.4849C35.4995 28.7167 35.3693 29.0311 35.3693 29.3589ZM37.0543 28.5589C37.1325 28.5924 37.1983 28.6496 37.2422 28.7224C37.2862 28.7953 37.3062 28.8801 37.2993 28.9649C37.3026 29.0534 37.28 29.141 37.2343 29.2169C37.201 29.2648 37.1586 29.3056 37.1093 29.3369C37.1473 29.3581 37.1811 29.3858 37.2093 29.4189C37.2507 29.4846 37.271 29.5614 37.2673 29.6389L37.2753 29.8509C37.2753 29.8937 37.2803 29.9363 37.2903 29.9779C37.2917 29.9928 37.2967 30.0072 37.3049 30.0197C37.3131 30.0323 37.3242 30.0426 37.3373 30.0499L37.3593 30.0609V30.1609H37.0393L37.0283 30.1419C37.0188 30.1211 37.0117 30.0993 37.0073 30.0769C37.002 30.0324 36.9996 29.9877 37.0003 29.9429L36.9873 29.6799C36.9903 29.6445 36.9832 29.6089 36.9667 29.5774C36.9503 29.5458 36.9251 29.5196 36.8943 29.5019C36.8372 29.4819 36.7767 29.4734 36.7163 29.4769H36.2653V30.1549H35.9773V28.5009H36.7453C36.8522 28.4972 36.9586 28.5167 37.0573 28.5579L37.0543 28.5589ZM36.2613 29.2259H36.7203C36.7964 29.2303 36.8721 29.2126 36.9383 29.1749C36.9645 29.1515 36.9846 29.122 36.997 29.0891C37.0094 29.0562 37.0136 29.0208 37.0093 28.9859C37.0145 28.9464 37.0077 28.9062 36.9899 28.8706C36.972 28.835 36.944 28.8055 36.9093 28.7859C36.8594 28.7647 36.8055 28.7548 36.7513 28.7569H36.2643V29.2239L36.2613 29.2259Z" fill="white"/>
</svg>
