<svg width="31" height="31" viewBox="0 0 31 31" fill="none" xmlns="http://www.w3.org/2000/svg">
<path opacity="0.3" d="M13.5293 30.8349C11.1476 30.5898 8.85915 29.7782 6.85527 28.4679C5.16727 27.3679 4.78627 26.9139 4.78627 26.0109C4.78627 24.1959 6.78627 21.0179 10.1953 17.3949C12.1343 15.3369 14.8343 12.9249 15.1263 12.9949C15.6943 13.1219 20.2333 17.5489 21.9323 19.6339C24.6193 22.9339 25.8543 25.6279 25.2273 26.8339C24.7503 27.7489 21.7903 29.5339 19.6153 30.2229C17.6433 30.807 15.5795 31.0173 13.5303 30.8429L13.5293 30.8349ZM2.51027 24.1229C1.09017 21.9232 0.246591 19.4014 0.0572683 16.7899C-0.0503112 15.5617 0.036079 14.3242 0.313268 13.1229C0.812182 10.3547 2.07861 7.78237 3.96827 5.6989C4.72227 4.9139 4.79027 4.8989 5.70927 5.2049C7.27329 5.87336 8.68721 6.84896 9.86727 8.0739L10.9463 9.0499L10.3573 9.7739C7.61827 13.135 5.35998 16.8607 3.64727 20.8439C3.09859 22.0583 2.89913 23.4015 3.07127 24.7229C3.24327 25.1749 3.08527 25.0059 2.51027 24.1229ZM27.1283 24.4889C27.2158 23.4118 27.0631 22.3288 26.6813 21.3179C25.7913 18.6049 22.8183 13.5569 20.0883 10.1259L19.2293 9.0449L20.1593 8.1909C21.0713 7.31438 22.0659 6.52806 23.1293 5.8429C23.7912 5.4141 24.5349 5.12707 25.3133 4.9999C25.5853 4.9999 26.5423 5.9929 27.3133 7.0769C28.5392 8.82917 29.3953 10.8128 29.8293 12.9069C30.1228 14.7833 30.1393 16.6927 29.8783 18.5739C29.6277 19.7964 29.2497 20.9893 28.7503 22.1329C28.3084 23.0524 27.7934 23.9349 27.2103 24.7719C27.0213 25.0119 27.0213 25.0109 27.1273 24.4939L27.1283 24.4889ZM13.7813 4.4889C12.4224 3.81217 10.9861 3.30342 9.50427 2.9739C9.03203 2.9038 8.55438 2.87702 8.07727 2.8939C7.19127 2.9389 7.23127 2.8939 8.65227 2.2209C9.76493 1.68556 10.941 1.29344 12.1523 1.0539C14.0768 0.737345 16.0399 0.734643 17.9653 1.0459C19.5561 1.37877 21.0879 1.9488 22.5093 2.7369L22.8243 2.9309L22.1003 2.8939C20.0751 2.9744 18.0959 3.52199 16.3173 4.4939C15.8921 4.71531 15.4539 4.91099 15.0053 5.0799C14.9623 5.0719 14.4053 4.8029 13.7763 4.4799L13.7813 4.4889Z" fill="white"/>
</svg>
