<svg width="49" height="49" viewBox="0 0 49 49" fill="none" xmlns="http://www.w3.org/2000/svg">
<path d="M24.5 49C38.031 49 49 38.031 49 24.5C49 10.969 38.031 0 24.5 0C10.969 0 0 10.969 0 24.5C0 38.031 10.969 49 24.5 49Z" fill="url(#paint0_linear_1_421)"/>
<path d="M11.9537 12.7002L21.6887 25.7162L11.8887 36.2982H14.0887L22.6617 27.0322L29.5907 36.2982H37.0907L26.8107 22.5502L35.9287 12.6992H33.7287L25.8287 21.2322L19.4507 12.6992L11.9537 12.7002ZM15.1957 14.3242H18.6417L33.8617 34.6752H30.4157L15.1957 14.3242Z" fill="white"/>
<defs>
<linearGradient id="paint0_linear_1_421" x1="51.94" y1="1.23192e-06" x2="-6.566" y2="45.57" gradientUnits="userSpaceOnUse">
<stop offset="0.01" stop-color="#FC00FF"/>
<stop offset="1" stop-color="#00DBDE"/>
</linearGradient>
</defs>
</svg>
